<?xml version="1.0" encoding="utf-8"?>
<!-- Generator: Adobe Illustrator 15.1.0, SVG Export Plug-In  -->
<!DOCTYPE svg PUBLIC "-//W3C//DTD SVG 1.1//EN" "http://www.w3.org/Graphics/SVG/1.1/DTD/svg11.dtd" [
	<!ENTITY ns_flows "http://ns.adobe.com/Flows/1.0/">
]>
<svg version="1.1"
	 xmlns="http://www.w3.org/2000/svg" xmlns:xlink="http://www.w3.org/1999/xlink" xmlns:a="http://ns.adobe.com/AdobeSVGViewerExtensions/3.0/"
	 x="0px" y="0px" width="696px" height="38px" viewBox="0 -0.25 696 38" enable-background="new 0 -0.25 696 38"
	 xml:space="preserve">
<defs>
</defs>
<path fill="#BABABA" d="M691.659,21.533c0,1.835-2.238,3.32-5,3.32H24.692c-2.761,0-5-1.485-5-3.32v-4.315
	c0-1.833,2.239-3.32,5-3.32h661.967c2.762,0,5,1.487,5,3.32V21.533z"/>
<circle fill="#FF5B00" cx="183.249" cy="18.749" r="18.749"/>
<circle fill="#BABABA" cx="347.75" cy="18.749" r="18.749"/>
<circle fill="#BABABA" cx="512.25" cy="18.749" r="18.749"/>
<circle fill="#BABABA" cx="676.75" cy="18.749" r="18.749"/>
<circle fill="#FF5B00" cx="18.749" cy="18.749" r="18.749"/>
<path fill="#FF5B00" d="M328.056,19.476c0,1.96-1.588,3.548-3.547,3.548H33.673c-1.959,0-3.547-1.588-3.547-3.548l0,0
	c0-1.959,1.588-3.547,3.547-3.547h290.836C326.468,15.929,328.056,17.517,328.056,19.476L328.056,19.476z"/>
<polyline fill="none" stroke="#FFC531" stroke-width="4" stroke-linecap="round" stroke-linejoin="round" stroke-miterlimit="10" points="
	10.381,19.385 18.131,25.135 27.381,12.135 "/>
<polyline fill="none" stroke="#FFC531" stroke-width="4" stroke-linecap="round" stroke-linejoin="round" stroke-miterlimit="10" points="
	173.881,19.385 181.631,25.135 190.881,12.135 "/>
</svg>
