<?xml version="1.0" encoding="utf-8"?>
<!-- Generator: Adobe Illustrator 15.1.0, SVG Export Plug-In  -->
<!DOCTYPE svg PUBLIC "-//W3C//DTD SVG 1.1//EN" "http://www.w3.org/Graphics/SVG/1.1/DTD/svg11.dtd" [
	<!ENTITY ns_flows "http://ns.adobe.com/Flows/1.0/">
]>
<svg version="1.1"
	 xmlns="http://www.w3.org/2000/svg" xmlns:xlink="http://www.w3.org/1999/xlink" xmlns:a="http://ns.adobe.com/AdobeSVGViewerExtensions/3.0/"
	 x="0px" y="0px" width="696px" height="38px" viewBox="0 0 696 38" enable-background="new 0 0 696 38" xml:space="preserve">
<defs>
</defs>
<path fill="#BABABA" d="M691.657,21.533c0,1.834-2.238,3.32-5,3.32H24.693c-2.762,0-5-1.486-5-3.32v-4.316
	c0-1.832,2.238-3.32,5-3.32h661.964c2.762,0,5,1.488,5,3.32V21.533z"/>
<circle fill="#FF5B00" cx="183.248" cy="18.748" r="18.749"/>
<circle fill="#FF5B00" cx="347.748" cy="18.748" r="18.749"/>
<circle fill="#FF5B00" cx="512.248" cy="18.748" r="18.749"/>
<circle fill="#FF5B00" cx="676.748" cy="18.748" r="18.749"/>
<circle fill="#FF5B00" cx="18.749" cy="18.748" r="18.749"/>
<path fill="#FF5B00" d="M680.315,19.475c0,1.961-2.232,3.549-4.986,3.549H35.112c-2.754,0-4.986-1.588-4.986-3.549l0,0
	c0-1.959,2.232-3.547,4.986-3.547h640.217C678.083,15.928,680.315,17.516,680.315,19.475L680.315,19.475z"/>
<polyline fill="none" stroke="#FFC531" stroke-width="4" stroke-linecap="round" stroke-linejoin="round" stroke-miterlimit="10" points="
	10.381,19.385 18.131,25.135 27.381,12.135 "/>
<polyline fill="none" stroke="#FFC531" stroke-width="4" stroke-linecap="round" stroke-linejoin="round" stroke-miterlimit="10" points="
	173.88,19.385 181.63,25.135 190.88,12.135 "/>
<polyline fill="none" stroke="#FFC531" stroke-width="4" stroke-linecap="round" stroke-linejoin="round" stroke-miterlimit="10" points="
	338.628,19.385 346.378,25.135 355.628,12.135 "/>
<polyline fill="none" stroke="#FFC531" stroke-width="4" stroke-linecap="round" stroke-linejoin="round" stroke-miterlimit="10" points="
	502.628,19.385 510.378,25.135 519.628,12.135 "/>
<polyline fill="none" stroke="#FFC531" stroke-width="4" stroke-linecap="round" stroke-linejoin="round" stroke-miterlimit="10" points="
	667.961,19.385 675.711,25.135 684.961,12.135 "/>
</svg>
